<?xml version="1.0" standalone="no"?>
<!DOCTYPE svg PUBLIC "-//W3C//DTD SVG 20010904//EN"
 "http://www.w3.org/TR/2001/REC-SVG-20010904/DTD/svg10.dtd">
<svg version="1.0" xmlns="http://www.w3.org/2000/svg"
 width="512.000000pt" height="512.000000pt" viewBox="0 0 512.000000 512.000000"
 preserveAspectRatio="xMidYMid meet">

<g transform="translate(0.000000,512.000000) scale(0.100000,-0.100000)"
fill="#000000" stroke="none">
<path d="M1313 4959 c-355 -40 -657 -189 -905 -447 -197 -206 -317 -435 -380
-726 -31 -146 -31 -427 0 -572 59 -274 172 -497 356 -707 l78 -87 -37 -42
c-145 -170 -150 -437 -11 -632 73 -102 180 -170 316 -200 22 -5 25 -11 27 -58
11 -254 202 -457 464 -492 l46 -7 11 -62 c33 -174 176 -333 351 -388 60 -19
168 -26 259 -16 19 2 26 -7 46 -55 90 -221 340 -353 573 -305 130 28 174 56
329 211 159 159 196 218 218 347 l12 74 58 7 c87 11 195 68 271 142 75 74 130
178 148 279 l10 64 69 11 c129 22 256 105 332 215 45 65 86 173 86 226 0 42
11 51 59 51 36 0 133 34 185 64 63 37 130 100 170 160 44 66 86 189 86 252 0
47 0 47 133 183 237 243 361 473 423 786 25 125 25 405 0 530 -61 309 -189
550 -410 771 -180 179 -347 283 -579 359 -299 97 -638 93 -938 -11 -198 -69
-378 -177 -524 -316 l-85 -80 -83 79 c-257 243 -593 382 -957 397 -69 2 -162
0 -207 -5z m2542 -335 c418 -80 779 -412 900 -829 70 -244 49 -517 -61 -753
-46 -100 -147 -251 -222 -332 l-61 -65 -613 612 -613 612 -85 -81 c-165 -158
-328 -194 -507 -113 -31 14 -83 54 -130 99 l-78 75 210 211 c305 306 409 391
589 476 217 102 439 132 671 88z m-2225 1 c166 -25 294 -70 430 -151 79 -47
233 -172 254 -206 9 -15 -19 -48 -192 -221 l-203 -203 173 -170 c198 -195 254
-242 351 -291 198 -99 459 -99 658 1 l67 33 511 -511 c281 -281 515 -524 521
-539 53 -143 -75 -285 -221 -247 -39 10 -85 53 -424 391 -209 208 -385 379
-390 379 -13 0 -225 -212 -225 -225 0 -5 171 -181 379 -390 339 -340 381 -385
391 -424 21 -80 -10 -159 -79 -202 -49 -31 -114 -38 -168 -19 -15 6 -200 183
-410 393 l-383 382 -117 -118 -118 -117 382 -383 c210 -210 387 -395 393 -410
40 -109 -32 -235 -146 -253 -58 -9 -102 8 -176 68 -125 99 -232 134 -385 124
-70 -4 -93 -2 -93 7 0 29 -61 136 -106 186 -88 98 -232 171 -338 171 l-42 0
-11 63 c-27 157 -137 298 -293 373 -27 13 -68 27 -90 30 -23 4 -43 12 -45 18
-1 6 -8 49 -14 96 -43 331 -411 542 -707 406 l-53 -24 -69 73 c-371 390 -416
1007 -106 1442 251 351 675 533 1094 468z m-602 -2260 c49 -21 81 -52 103
-100 41 -89 19 -148 -99 -268 -100 -102 -142 -127 -209 -127 -136 0 -223 141
-164 263 28 58 197 223 242 236 50 14 85 13 127 -4z m460 -549 c31 -16 74 -61
91 -94 18 -33 15 -115 -4 -155 -26 -56 -204 -223 -251 -236 -54 -15 -83 -13
-129 8 -85 38 -126 123 -104 214 10 42 25 64 93 135 107 112 154 142 223 142
30 0 66 -6 81 -14z m520 -484 c63 -29 109 -121 96 -193 -10 -53 -36 -89 -137
-186 -106 -103 -152 -123 -230 -102 -89 23 -137 86 -137 179 0 68 18 100 109
193 129 133 194 157 299 109z m649 -378 c21 -17 46 -46 55 -65 20 -38 23 -113
8 -155 -16 -41 -189 -214 -235 -235 -94 -44 -201 -2 -246 96 -40 87 -20 144
94 262 108 112 150 136 229 130 46 -2 66 -10 95 -33z"/>
</g>
</svg>
