<svg xmlns="http://www.w3.org/2000/svg" version="1.1" xmlns:xlink="http://www.w3.org/1999/xlink" xmlns:svgjs="http://svgjs.dev/svgjs" width="1000" height="625" viewBox="0 0 1000 625"><g transform="matrix(1,0,0,1,0,0)"><svg viewBox="0 0 512 320" data-background-color="#ffffff" preserveAspectRatio="xMidYMid meet" height="625" width="1000" xmlns="http://www.w3.org/2000/svg" xmlns:xlink="http://www.w3.org/1999/xlink"><g id="tight-bounds" transform="matrix(1,0,0,1,0,0)"><svg viewBox="0 0 512 320" height="320" width="512"><g><svg></svg></g><g><svg viewBox="0 0 512 320" height="320" width="512"><g><path xmlns="http://www.w3.org/2000/svg" d="M96 160c0-88.366 71.634-160 160-160 88.366 0 160 71.634 160 160 0 88.366-71.634 160-160 160-88.366 0-160-71.634-160-160z" fill="#000000" fill-rule="nonzero" stroke="none" stroke-width="1" stroke-linecap="butt" stroke-linejoin="miter" stroke-miterlimit="10" stroke-dasharray="" stroke-dashoffset="0" font-family="none" font-weight="none" font-size="none" text-anchor="none" style="mix-blend-mode: normal" data-fill-palette-color="tertiary"></path></g><g transform="matrix(1,0,0,1,116,20)"><svg viewBox="0 0 280 280" height="280" width="280"><g><svg viewBox="0 0 280 280" height="280" width="280"><g><svg viewBox="0 0 280 280" height="280" width="280"><g id="textblocktransform"><svg viewBox="0 0 280 280" height="280" width="280" id="textblock"><g><svg viewBox="0 0 280 280" height="280" width="280"><g transform="matrix(1,0,0,1,74.00336708925556,79.18842788604935)"><svg viewBox="0 0 131.99326582148888 121.62314422790129" height="121.62314422790129" width="131.99326582148888"><g><svg xmlns="http://www.w3.org/2000/svg" xmlns:xlink="http://www.w3.org/1999/xlink" version="1.1" x="0" y="0" viewBox="2.1576786041259766 8.263004302978516 197.11331176757812 181.6269989013672" enable-background="new 0 0 200 200" xml:space="preserve" height="121.62314422790129" width="131.99326582148888" class="icon-o-0" data-fill-palette-color="quaternary" id="o-0"><path d="M199.271 68.246c0-16.021-6.241-31.083-17.572-42.413-11.33-11.33-26.394-17.57-42.415-17.57-14.44 0-28.1 5.068-38.949 14.364C89.577 13.668 76.136 8.785 61.997 8.785c-16.008 0-31.058 6.234-42.379 17.554-22.921 22.921-23.305 60.373-0.974 83.789 0.141 0.188 0.295 0.366 0.463 0.533l77.766 77.764c0.938 0.938 2.209 1.465 3.536 1.465 1.327 0 2.598-0.527 3.536-1.465l0.579-0.579c0.023-0.022 0.052-0.038 0.075-0.062l16.897-16.896c0.058-0.058 0.105-0.121 0.162-0.18l60.041-60.047C193.031 99.332 199.271 84.268 199.271 68.246zM174.628 32.904c9.442 9.44 14.643 21.992 14.643 35.342 0.001 12.666-4.687 24.607-13.23 33.862-0.633-3.887-2.438-7.475-5.277-10.313l-46.557-46.561c-1.953-1.953-5.12-1.953-7.071 0-0.032 0.033-0.055 0.072-0.086 0.105-0.037 0.036-0.081 0.06-0.118 0.097L88.088 74.28c-3.482 3.483-9.149 3.483-12.632 0.001-1.687-1.687-2.616-3.93-2.616-6.316 0-2.386 0.93-4.629 2.617-6.316L104.3 32.805c0.281-0.282 0.511-0.594 0.711-0.918 9.309-8.79 21.415-13.624 34.272-13.624C152.634 18.263 165.187 23.463 174.628 32.904zM100.408 177.818L89.35 166.761l14.01-14.01c1.477-1.479 3.44-2.293 5.53-2.293 0 0 0 0 0.001 0 2.089 0 4.053 0.814 5.531 2.294 2.992 2.992 3.041 7.821 0.166 10.884L100.408 177.818zM60.009 109.405l-14.007 14.009L34.937 112.35l14.01-14.01c1.478-1.479 3.441-2.293 5.531-2.293 0 0 0.001 0 0.001 0 2.088 0 4.052 0.814 5.531 2.295 1.479 1.477 2.292 3.441 2.292 5.531S61.489 107.926 60.009 109.405zM67.085 116.476c1.477-1.479 3.441-2.292 5.531-2.292 2.09 0 4.054 0.813 5.534 2.294 1.479 1.478 2.292 3.441 2.292 5.53 0 2.09-0.814 4.055-2.294 5.534l-14.008 14.01-11.066-11.066L67.085 116.476zM85.219 134.614c1.479-1.479 3.443-2.293 5.533-2.293 2.09 0 4.056 0.814 5.534 2.292 3.049 3.052 3.049 8.017 0.001 11.067l-14.011 14.008-11.066-11.066L85.219 134.614zM26.688 33.411c9.432-9.431 21.972-14.625 35.309-14.625 11.47 0 22.39 3.857 31.231 10.949L68.385 54.578c-3.575 3.576-5.545 8.33-5.545 13.386 0 5.058 1.969 9.813 5.546 13.389 3.691 3.689 8.538 5.534 13.386 5.534 4.849 0 9.697-1.846 13.388-5.537l25.508-25.511 43.023 43.026c1.688 1.687 2.616 3.931 2.616 6.317 0 2.386-0.929 4.629-2.614 6.314-3.483 3.484-9.151 3.481-12.633 0.001l-37.789-37.792c-0.334-0.334-0.713-0.59-1.105-0.81-1.95-1.374-4.66-1.2-6.404 0.544-1.953 1.953-1.953 5.119 0 7.071l37.786 37.788c1.688 1.687 2.617 3.931 2.617 6.316s-0.929 4.629-2.617 6.317c-1.686 1.687-3.927 2.615-6.313 2.615h-0.001c-2.387-0.001-4.63-0.93-6.317-2.617L93.69 93.704c-0.002-0.001-0.004-0.003-0.005-0.004l-0.555-0.555c-1.952-1.951-5.117-1.952-7.071 0-1.953 1.953-1.953 5.119 0 7.071l19.593 19.593 18.753 18.754c3.289 3.29 3.468 8.524 0.544 12.03-0.847-1.774-1.985-3.442-3.452-4.91-3.366-3.369-7.843-5.225-12.604-5.225-0.001 0-0.002 0-0.003 0-0.113 0-0.224 0.015-0.336 0.017 0.085-4.673-1.639-9.373-5.194-12.931-3.367-3.368-7.844-5.223-12.605-5.223 0 0-0.001 0-0.002 0-0.109 0-0.216 0.014-0.325 0.016 0.002-0.11 0.016-0.219 0.016-0.329 0-4.762-1.855-9.238-5.222-12.602-3.366-3.368-7.842-5.223-12.604-5.223-0.11 0-0.219 0.014-0.329 0.016 0.002-0.109 0.016-0.217 0.016-0.327 0-4.763-1.855-9.239-5.221-12.603-3.366-3.369-7.841-5.224-12.603-5.224-0.001 0-0.002 0-0.003 0-4.762 0-9.238 1.856-12.602 5.224l-14.008 14.008-1.253-1.253c-0.112-0.144-0.232-0.281-0.361-0.413C7.268 84.128 7.463 52.635 26.688 33.411z" fill="#ffffff" data-fill-palette-color="quaternary"></path></svg></g></svg></g><g><path d="M31.986 105.378v0c-0.491 1.423-1.163 2.811-2.017 4.165-0.859 1.352-1.744 2.421-2.654 3.208v0l-5.209-2.008 0.136-0.395 2.935-0.334c0.85-0.106 1.623-0.271 2.317-0.494 0.701-0.221 1.333-0.641 1.897-1.26v0c0.434-0.425 0.779-0.864 1.034-1.316 0.258-0.444 0.49-0.963 0.696-1.559v0c0.545-1.579 0.55-2.974 0.013-4.183-0.541-1.218-1.481-2.058-2.823-2.521v0c-1.266-0.437-2.363-0.469-3.292-0.095-0.922 0.376-1.959 1.133-3.11 2.272v0l-1.244 1.349c-1.752 1.885-3.484 3.234-5.195 4.046-1.711 0.812-3.629 0.851-5.753 0.118v0c-1.523-0.526-2.703-1.375-3.54-2.548-0.845-1.169-1.322-2.561-1.43-4.176-0.109-1.616 0.163-3.367 0.814-5.253v0c0.474-1.373 1.105-2.61 1.892-3.713 0.788-1.103 1.648-2.002 2.582-2.696v0l4.573 1.841-0.137 0.395-3.453 0.586c-1.06 0.125-1.854 0.342-2.382 0.651-0.527 0.309-0.965 0.723-1.312 1.241v0c-0.223 0.302-0.403 0.587-0.537 0.856-0.135 0.269-0.278 0.623-0.43 1.061v0c-0.457 1.322-0.458 2.567-0.005 3.733 0.445 1.171 1.316 1.98 2.613 2.428v0c1.316 0.454 2.49 0.467 3.522 0.038 1.03-0.423 2.088-1.201 3.173-2.335v0l1.384-1.511c1.949-2.112 3.725-3.498 5.329-4.157 1.603-0.66 3.372-0.656 5.308 0.012v0c2.275 0.785 3.834 2.284 4.677 4.497 0.84 2.219 0.716 4.905-0.373 8.057z" fill="#ffffff" data-fill-palette-color="quaternary"></path><path d="M41.363 82.831l-4.996 9.283-0.359-0.193 0.098-0.873c0.091-0.576 0.034-1.021-0.174-1.336-0.204-0.306-0.549-0.589-1.033-0.85v0l-18.864-10.152c-0.479-0.258-0.902-0.395-1.269-0.412-0.365-0.008-0.768 0.196-1.211 0.614v0l-0.676 0.562-0.359-0.193 4.996-9.283 0.359 0.193-0.097 0.874c-0.091 0.576-0.037 1.019 0.164 1.331 0.21 0.309 0.555 0.592 1.034 0.85v0l18.864 10.151c0.485 0.261 0.905 0.389 1.261 0.385 0.365-0.007 0.774-0.201 1.228-0.581v0l0.675-0.563z" fill="#ffffff" data-fill-palette-color="quaternary"></path><path d="M49.628 72.041l-6.538 8.219-0.319-0.254 0.307-0.849c0.192-0.55 0.218-0.987 0.077-1.311-0.15-0.323-0.451-0.664-0.902-1.023v0l-16.796-13.361c-0.425-0.338-0.808-0.55-1.148-0.633-0.339-0.075-0.744 0.031-1.217 0.315v0l-0.876 0.511-0.319-0.254 7.305-9.184c2.01-2.527 4.026-4.087 6.05-4.681 2.028-0.59 3.888-0.212 5.579 1.134v0c0.939 0.747 1.6 1.849 1.983 3.306 0.374 1.458 0.215 3.153-0.475 5.086v0l12.411 2.578c0.521 0.101 0.992 0.116 1.413 0.044 0.417-0.066 0.872-0.234 1.366-0.502v0l0.497-0.29 0.288 0.229-4.575 5.752-13.895-3.301-1.739 2.187 7.931 6.309c0.41 0.326 0.794 0.525 1.151 0.598 0.363 0.077 0.77-0.036 1.221-0.338v0l0.901-0.541zM27.667 57.456l9.799 7.795 1.226-1.541c1.226-1.541 1.699-2.982 1.419-4.323-0.28-1.341-1.235-2.66-2.864-3.956v0c-1.645-1.308-3.123-1.963-4.436-1.965-1.316 0.004-2.579 0.766-3.788 2.286v0z" fill="#ffffff" data-fill-palette-color="quaternary"></path><path d="M68.209 52.442l-7.897 6.985-0.27-0.306 0.394-0.786c0.285-0.509 0.384-0.946 0.299-1.313-0.086-0.358-0.311-0.742-0.677-1.155v0l-14.192-16.046c-0.36-0.407-0.71-0.682-1.049-0.825-0.339-0.134-0.789-0.081-1.348 0.157v0l-0.828 0.294-0.27-0.305 7.896-6.984 0.27 0.305-0.393 0.786c-0.285 0.509-0.387 0.944-0.306 1.306 0.091 0.363 0.316 0.747 0.676 1.155v0l14.193 16.046c0.365 0.412 0.715 0.678 1.05 0.797 0.345 0.12 0.796 0.079 1.353-0.122v0l0.829-0.294z" fill="#ffffff" data-fill-palette-color="quaternary"></path><path d="M80.279 44.657l-9.47 5.902-0.215-0.346 0.539-0.676c0.379-0.432 0.559-0.833 0.539-1.203-0.029-0.373-0.187-0.789-0.475-1.251v0l-11.377-18.257c-0.288-0.461-0.598-0.784-0.931-0.967-0.335-0.174-0.787-0.197-1.356-0.069v0l-0.832 0.132-0.215-0.346 8.457-5.271c3.461-2.157 6.357-3.087 8.69-2.791 2.331 0.305 4.141 1.493 5.432 3.564v0c0.824 1.322 1.262 2.733 1.313 4.232 0.046 1.503-0.461 3.033-1.52 4.593-1.056 1.564-2.825 3.12-5.307 4.666v0l-1.19 0.742 3.993 6.406c0.565 0.906 1.388 1.217 2.468 0.934v0l1.242-0.34zM63.982 23.865l7.943 12.745 1.325-0.826c1.137-0.708 1.949-1.473 2.438-2.293 0.489-0.82 0.618-1.803 0.388-2.949-0.23-1.146-0.858-2.543-1.886-4.192v0c-1.042-1.671-2.043-2.852-3.004-3.541-0.961-0.69-1.925-0.984-2.892-0.881-0.967 0.103-2.008 0.501-3.122 1.196v0z" fill="#ffffff" data-fill-palette-color="quaternary"></path><path d="M96.171 36.615l-5.352 1.839-0.132-0.386 0.849-0.681c0.449-0.386 0.763-0.778 0.942-1.175 0.181-0.392 0.268-0.892 0.263-1.5v0l0.11-25.687 3.301-1.135 15.821 20.391c0.401 0.493 0.782 0.846 1.142 1.059 0.358 0.206 0.846 0.319 1.463 0.338v0l0.525-0.002 0.132 0.386-9.866 3.391-0.132-0.386 0.515-0.397c0.474-0.394 0.706-0.8 0.696-1.218-0.016-0.415-0.191-0.853-0.525-1.313v0l-3.744-4.959-8.616 2.961 0.02 6.114c0.012 0.627 0.111 1.098 0.296 1.412 0.179 0.317 0.577 0.485 1.193 0.505v0l0.966 0.057zM93.615 13.758l-0.047 13.508 8.117-2.789z" fill="#ffffff" data-fill-palette-color="quaternary"></path><path d="M137.344 28.604v0c-1.505 0.038-3.04-0.105-4.607-0.43-1.567-0.332-2.879-0.786-3.934-1.363v0l0.057-5.582 0.417-0.011 1.34 2.632c0.397 0.759 0.822 1.425 1.275 1.997 0.452 0.579 1.067 1.024 1.845 1.336v0c0.55 0.258 1.082 0.427 1.594 0.507 0.506 0.087 1.074 0.122 1.704 0.106v0c1.67-0.042 2.978-0.527 3.923-1.453 0.951-0.933 1.409-2.108 1.372-3.527v0c-0.034-1.339-0.389-2.378-1.064-3.117-0.675-0.732-1.748-1.438-3.217-2.116v0l-1.699-0.693c-2.379-0.981-4.249-2.13-5.609-3.449-1.36-1.318-2.069-3.101-2.126-5.348v0c-0.041-1.611 0.341-3.013 1.147-4.208 0.798-1.201 1.935-2.135 3.41-2.802 1.475-0.668 3.21-1.027 5.206-1.078v0c1.452-0.037 2.832 0.12 4.14 0.472 1.309 0.351 2.452 0.843 3.43 1.475v0l-0.123 4.927-0.418 0.011-1.758-3.029c-0.488-0.949-0.97-1.617-1.444-2.003-0.474-0.386-1.015-0.651-1.622-0.795v0c-0.361-0.104-0.691-0.171-0.99-0.203-0.299-0.032-0.681-0.042-1.145-0.031v0c-1.399 0.036-2.565 0.47-3.498 1.303-0.941 0.826-1.394 1.926-1.359 3.298v0c0.035 1.392 0.435 2.496 1.199 3.312 0.757 0.816 1.856 1.535 3.298 2.154v0l1.899 0.768c2.661 1.086 4.581 2.265 5.761 3.534 1.18 1.27 1.796 2.929 1.848 4.977v0c0.061 2.406-0.797 4.391-2.575 5.955-1.784 1.564-4.343 2.389-7.677 2.474z" fill="#ffffff" data-fill-palette-color="quaternary"></path><path d="M171.061 31.63l-20.159-3.594 0.071-0.401 0.995-0.197c0.491-0.108 0.852-0.303 1.084-0.584 0.224-0.277 0.385-0.686 0.481-1.228v0l3.761-21.089c0.095-0.535 0.099-0.972 0.011-1.312-0.095-0.334-0.381-0.64-0.856-0.92v0l-0.866-0.528 0.072-0.402 19.347 3.45-0.864 6.261-0.401-0.072-1.066-4.11c-0.155-0.526-0.34-0.963-0.554-1.311-0.215-0.341-0.594-0.56-1.136-0.657v0l-7.274-1.297-2.083 11.681 4.328 0.771c0.535 0.095 0.972 0.025 1.31-0.21 0.331-0.231 0.647-0.568 0.949-1.013v0l1.1-1.471 0.402 0.072-1.296 7.265-0.401-0.072-0.511-1.839c-0.155-0.526-0.341-0.957-0.557-1.291-0.224-0.33-0.604-0.542-1.139-0.638v0l-4.328-0.771-2.24 12.561 8.166 1.456c0.535 0.095 0.978 0.03 1.328-0.197 0.344-0.228 0.656-0.583 0.938-1.066v0l2.33-3.494 0.411 0.074z" fill="#ffffff" data-fill-palette-color="quaternary"></path><path d="M183.973 37.634l-2.554-1.23 4.043-25.152c0.106-0.648 0.122-1.148 0.049-1.499-0.073-0.352-0.303-0.761-0.69-1.227v0l-0.353-0.39 0.177-0.368 9.794 4.716-0.177 0.368-0.922-0.08c-0.674-0.052-1.187 0.035-1.54 0.263-0.35 0.222-0.574 0.658-0.674 1.309v0l-3.376 17.327 10.577-10.802 0.413-3.035c0.077-0.603 0.106-1.075 0.085-1.416-0.011-0.344-0.148-0.686-0.411-1.026v0l-0.604-0.832 0.177-0.367 9.283 4.47-0.177 0.367-1.358-0.113c-0.579-0.066-0.979 0.055-1.2 0.361-0.221 0.306-0.368 0.757-0.443 1.354v0l-2.872 17.978 11.861-13.286c0.458-0.508 0.77-0.995 0.934-1.459 0.159-0.468 0.002-0.937-0.47-1.408v0l-0.645-0.631 0.177-0.367 5.134 2.472-0.177 0.368-1.136-0.094c-0.579-0.066-1.057 0.039-1.432 0.314-0.375 0.275-0.766 0.65-1.171 1.125v0l-16.532 18.631-2.554-1.23 2.82-20.045z" fill="#ffffff" data-fill-palette-color="quaternary"></path><path d="M211.303 52.713l-4.222-3.769 0.272-0.304 1.009 0.407c0.556 0.203 1.052 0.286 1.486 0.247 0.43-0.034 0.909-0.202 1.437-0.504v0l22.461-12.463 2.604 2.325-10.052 23.771c-0.234 0.591-0.356 1.095-0.365 1.514-0.005 0.413 0.135 0.894 0.42 1.441v0l0.258 0.457-0.271 0.304-7.782-6.948 0.271-0.304 0.599 0.255c0.576 0.221 1.043 0.225 1.403 0.012 0.354-0.217 0.65-0.584 0.888-1.1v0l2.496-5.692-6.795-6.067-5.324 3.006c-0.541 0.317-0.903 0.633-1.088 0.949-0.189 0.311-0.141 0.741 0.144 1.288v0l0.422 0.871zM229.991 39.308l-11.807 6.563 6.403 5.717z" fill="#ffffff" data-fill-palette-color="quaternary"></path><path d="M231.548 73.41l-3.587-5.113 0.334-0.234 1.125 0.875c0.39 0.326 0.811 0.464 1.262 0.415 0.451-0.049 0.9-0.23 1.345-0.543v0l16.162-11.336c0.366-0.621 0.633-1.1 0.802-1.437 0.163-0.333 0.277-0.656 0.341-0.968 0.064-0.312 0.133-0.729 0.205-1.249v0l0.17-0.97 0.334-0.234 4.169 5.944-7.394 21.828 12.669-8.886c0.445-0.312 0.795-0.667 1.051-1.065 0.259-0.392 0.288-0.854 0.086-1.384v0l-0.475-1.319 0.334-0.234 3.369 4.804-0.334 0.234-0.935-0.693c-0.421-0.312-0.831-0.393-1.228-0.244-0.401 0.144-0.824 0.372-1.27 0.684v0l-19.753 13.855-1.319-1.881 8.636-25.202-15.055 10.559c-0.445 0.312-0.777 0.647-0.997 1.003-0.223 0.351-0.25 0.787-0.08 1.307v0l0.367 1.25z" fill="#ffffff" data-fill-palette-color="quaternary"></path><path d="M244.683 95.351l-2.029-5.283 0.381-0.146 0.71 0.825c0.402 0.435 0.804 0.735 1.209 0.899 0.398 0.167 0.901 0.237 1.508 0.209v0l25.675-0.803 1.251 3.259-19.815 16.536c-0.479 0.418-0.818 0.811-1.017 1.179-0.193 0.365-0.289 0.857-0.287 1.473v0l0.021 0.525-0.381 0.146-3.74-9.739 0.381-0.146 0.416 0.501c0.411 0.46 0.825 0.678 1.241 0.652 0.414-0.031 0.845-0.222 1.294-0.571v0l4.823-3.919-3.266-8.504-6.109 0.236c-0.626 0.034-1.093 0.15-1.401 0.347-0.31 0.19-0.464 0.594-0.462 1.21v0l-0.023 0.968zM267.434 91.984l-13.502 0.433 3.077 8.013z" fill="#ffffff" data-fill-palette-color="quaternary"></path><path d="M11.935 188.936v0c-0.491-1.423-0.819-2.93-0.982-4.522-0.157-1.594-0.121-2.981 0.11-4.162v0l5.339-1.633 0.136 0.395-2.104 2.073c-0.604 0.608-1.11 1.214-1.519 1.818-0.415 0.606-0.654 1.327-0.716 2.162v0c-0.08 0.603-0.08 1.16-0.001 1.674 0.07 0.509 0.208 1.061 0.414 1.656v0c0.545 1.579 1.402 2.679 2.57 3.3 1.177 0.625 2.436 0.706 3.777 0.243v0c1.266-0.437 2.149-1.089 2.649-1.956 0.494-0.865 0.843-2.1 1.046-3.707v0l0.147-1.829c0.216-2.565 0.747-4.694 1.593-6.389 0.846-1.695 2.331-2.909 4.455-3.643v0c1.523-0.526 2.975-0.585 4.358-0.178 1.386 0.398 2.62 1.2 3.702 2.404 1.082 1.205 1.949 2.75 2.6 4.637v0c0.474 1.373 0.741 2.736 0.802 4.089 0.061 1.354-0.063 2.592-0.37 3.716v0l-4.734 1.371-0.136-0.395 2.356-2.591c0.757-0.752 1.248-1.413 1.473-1.982 0.225-0.569 0.314-1.164 0.267-1.786v0c-0.01-0.375-0.045-0.71-0.105-1.005-0.06-0.295-0.165-0.662-0.317-1.101v0c-0.457-1.322-1.223-2.303-2.299-2.941-1.072-0.647-2.257-0.747-3.554-0.299v0c-1.316 0.454-2.248 1.169-2.795 2.143-0.55 0.968-0.902 2.233-1.057 3.795v0l-0.158 2.043c-0.232 2.865-0.774 5.051-1.628 6.56-0.854 1.508-2.249 2.597-4.186 3.265v0c-2.275 0.785-4.427 0.567-6.455-0.655-2.03-1.228-3.589-3.418-4.678-6.571z" fill="#ffffff" data-fill-palette-color="quaternary"></path><path d="M23.981 213.915l-4.996-9.283 0.359-0.193 0.676 0.562c0.43 0.393 0.834 0.59 1.21 0.591 0.368-0.002 0.794-0.134 1.279-0.394v0l18.864-10.152c0.479-0.258 0.826-0.535 1.042-0.832 0.208-0.3 0.259-0.749 0.156-1.348v0l-0.098-0.874 0.359-0.193 4.996 9.283-0.359 0.193-0.675-0.563c-0.43-0.393-0.831-0.592-1.202-0.595-0.374 0.005-0.8 0.137-1.279 0.394v0l-18.864 10.152c-0.485 0.261-0.823 0.541-1.015 0.84-0.195 0.308-0.259 0.757-0.191 1.345v0l0.097 0.874z" fill="#ffffff" data-fill-palette-color="quaternary"></path><path d="M34.18 227.64l-6.538-8.219 0.319-0.254 0.759 0.49c0.493 0.311 0.913 0.434 1.26 0.37 0.348-0.074 0.748-0.29 1.199-0.649v0l16.796-13.361c0.425-0.338 0.717-0.664 0.876-0.976 0.149-0.313 0.138-0.732-0.034-1.256v0l-0.3-0.969 0.319-0.254 7.305 9.184c2.01 2.527 3.077 4.843 3.201 6.947 0.118 2.109-0.668 3.836-2.36 5.182v0c-0.939 0.747-2.162 1.143-3.667 1.188-1.505 0.036-3.121-0.499-4.849-1.607v0l-5.304 11.514c-0.216 0.485-0.336 0.941-0.361 1.367-0.029 0.421 0.032 0.902 0.183 1.443v0l0.17 0.551-0.287 0.229-4.576-5.752 6.342-12.796-1.74-2.187-7.931 6.309c-0.41 0.326-0.69 0.655-0.842 0.987-0.156 0.336-0.138 0.758 0.054 1.266v0l0.325 0.999zM53.33 209.522l-9.799 7.795 1.226 1.541c1.226 1.541 2.524 2.326 3.894 2.355 1.37 0.029 2.869-0.605 4.498-1.901v0c1.645-1.308 2.616-2.602 2.912-3.88 0.292-1.283-0.166-2.685-1.375-4.205v0z" fill="#ffffff" data-fill-palette-color="quaternary"></path><path d="M55.131 249.736l-7.896-6.985 0.27-0.305 0.828 0.294c0.54 0.221 0.986 0.266 1.34 0.137 0.344-0.129 0.699-0.4 1.063-0.812v0l14.193-16.047c0.36-0.407 0.591-0.788 0.691-1.141 0.091-0.353-0.016-0.793-0.32-1.319v0l-0.394-0.786 0.27-0.306 7.897 6.985-0.27 0.305-0.829-0.294c-0.54-0.221-0.984-0.268-1.333-0.144-0.349 0.134-0.703 0.405-1.063 0.812v0l-14.193 16.046c-0.365 0.412-0.586 0.792-0.663 1.14-0.077 0.357 0.018 0.8 0.286 1.328v0l0.393 0.786z" fill="#ffffff" data-fill-palette-color="quaternary"></path><path d="M69.839 259.488l-9.47-5.902 0.216-0.346 0.844 0.186c0.555 0.15 0.994 0.135 1.318-0.046 0.322-0.19 0.626-0.516 0.914-0.977v0l11.377-18.257c0.288-0.461 0.44-0.882 0.458-1.261 0.009-0.377-0.17-0.793-0.535-1.248v0l-0.484-0.688 0.215-0.346 8.458 5.27c3.461 2.157 5.572 4.347 6.333 6.572 0.753 2.227 0.484 4.376-0.807 6.447v0c-0.824 1.322-1.898 2.337-3.22 3.043-1.329 0.703-2.926 0.922-4.793 0.658-1.87-0.259-4.045-1.162-6.527-2.708v0l-1.19-0.742-3.992 6.406c-0.565 0.906-0.482 1.782 0.249 2.628v0l0.852 0.964zM81.326 235.697l-7.943 12.745 1.325 0.826c1.137 0.708 2.181 1.101 3.132 1.179 0.952 0.077 1.891-0.239 2.819-0.95 0.927-0.711 1.905-1.891 2.933-3.54v0c1.042-1.671 1.66-3.09 1.856-4.257 0.196-1.167 0.035-2.162-0.484-2.985-0.518-0.823-1.335-1.582-2.448-2.276v0z" fill="#ffffff" data-fill-palette-color="quaternary"></path><path d="M89.755 269.445l-5.352-1.839 0.133-0.386 1.088-0.015c0.592-0.028 1.08-0.144 1.466-0.348 0.383-0.198 0.76-0.538 1.129-1.021v0l15.879-20.192 3.301 1.135-0.058 25.808c0.013 0.635 0.096 1.148 0.25 1.537 0.156 0.383 0.471 0.772 0.946 1.167v0l0.415 0.321-0.133 0.386-9.866-3.391 0.133-0.386 0.651 0.003c0.617-0.019 1.049-0.197 1.297-0.532 0.242-0.337 0.373-0.79 0.394-1.358v0l0.095-6.214-8.615-2.961-3.744 4.834c-0.376 0.502-0.587 0.934-0.635 1.296-0.054 0.36 0.157 0.737 0.632 1.132v0l0.726 0.639zM101.791 249.847l-8.342 10.625 8.117 2.79z" fill="#ffffff" data-fill-palette-color="quaternary"></path><path d="M136.805 279.993v0c-1.505-0.038-3.031-0.259-4.579-0.664-1.548-0.411-2.835-0.931-3.861-1.56v0l0.341-5.573 0.418 0.011 1.204 2.697c0.358 0.778 0.749 1.465 1.172 2.059 0.422 0.601 1.014 1.077 1.774 1.428v0c0.537 0.286 1.059 0.481 1.567 0.587 0.501 0.112 1.067 0.176 1.696 0.192v0c1.67 0.042 3.001-0.375 3.992-1.251 0.997-0.883 1.514-2.034 1.55-3.453v0c0.034-1.339-0.267-2.394-0.905-3.166-0.637-0.766-1.672-1.525-3.105-2.278v0l-1.662-0.778c-2.326-1.1-4.135-2.344-5.426-3.73-1.291-1.386-1.908-3.202-1.851-5.449v0c0.041-1.611 0.494-2.992 1.358-4.144 0.859-1.159 2.041-2.034 3.549-2.625 1.507-0.592 3.259-0.862 5.254-0.812v0c1.452 0.037 2.822 0.264 4.111 0.682 1.289 0.417 2.406 0.967 3.351 1.647v0l-0.374 4.915-0.418-0.011-1.602-3.115c-0.44-0.973-0.886-1.664-1.34-2.073-0.454-0.409-0.98-0.701-1.579-0.876v0c-0.355-0.122-0.681-0.206-0.979-0.254-0.297-0.047-0.678-0.077-1.141-0.088v0c-1.399-0.036-2.585 0.339-3.561 1.123-0.981 0.778-1.49 1.852-1.524 3.224v0c-0.035 1.392 0.307 2.515 1.028 3.369 0.714 0.854 1.776 1.627 3.184 2.319v0l1.859 0.863c2.602 1.22 4.46 2.494 5.573 3.823 1.114 1.328 1.644 3.016 1.593 5.065v0c-0.061 2.406-1.019 4.345-2.874 5.816-1.861 1.471-4.459 2.165-7.793 2.08z" fill="#ffffff" data-fill-palette-color="quaternary"></path><path d="M174.526 275.195l-20.16 3.594-0.071-0.401 0.865-0.528c0.423-0.271 0.695-0.579 0.816-0.924 0.115-0.337 0.124-0.776 0.027-1.318v0l-3.76-21.089c-0.095-0.535-0.243-0.947-0.442-1.235-0.205-0.28-0.579-0.469-1.122-0.568v0l-0.995-0.196-0.071-0.401 19.347-3.45 1.353 6.174-0.401 0.071-2.421-3.488c-0.328-0.44-0.652-0.786-0.973-1.038-0.32-0.246-0.751-0.321-1.292-0.225v0l-7.275 1.297 2.083 11.681 4.327-0.772c0.535-0.095 0.921-0.312 1.157-0.65 0.231-0.331 0.411-0.757 0.54-1.279v0l0.524-1.76 0.402-0.072 1.295 7.265-0.401 0.072-1.115-1.549c-0.328-0.44-0.651-0.78-0.97-1.019-0.324-0.232-0.754-0.3-1.289-0.205v0l-4.327 0.772 2.239 12.561 8.166-1.455c0.535-0.095 0.928-0.31 1.178-0.645 0.244-0.333 0.414-0.774 0.512-1.323v0l0.979-4.085 0.411-0.073z" fill="#ffffff" data-fill-palette-color="quaternary"></path><path d="M192.64 267.758l-2.553 1.23-17.143-18.844c-0.441-0.487-0.821-0.811-1.142-0.974-0.321-0.162-0.784-0.237-1.389-0.225v0l-0.526 0.032-0.177-0.367 9.794-4.716 0.177 0.367-0.637 0.671c-0.461 0.494-0.713 0.95-0.754 1.368-0.045 0.412 0.156 0.859 0.602 1.343v0l11.441 13.444-1.849-15.004-2.116-2.216c-0.423-0.436-0.775-0.753-1.053-0.95-0.276-0.206-0.628-0.312-1.059-0.318v0l-1.026-0.046-0.177-0.368 9.283-4.47 0.177 0.367-0.936 0.992c-0.412 0.412-0.568 0.8-0.466 1.163 0.101 0.363 0.362 0.76 0.783 1.19v0l12.263 13.456-2.99-17.557c-0.112-0.675-0.298-1.222-0.559-1.641-0.267-0.416-0.731-0.586-1.393-0.51v0l-0.896 0.111-0.177-0.367 5.135-2.472 0.176 0.367-0.781 0.829c-0.412 0.412-0.628 0.851-0.647 1.316-0.019 0.465 0.031 1.004 0.149 1.617v0l4.257 24.542-2.554 1.229-13.913-14.703z" fill="#ffffff" data-fill-palette-color="quaternary"></path><path d="M224.45 249.404l-4.222 3.769-0.271-0.305 0.519-0.956c0.265-0.53 0.402-1.013 0.413-1.449 0.015-0.431-0.098-0.926-0.339-1.484v0l-9.85-23.724 2.604-2.325 22.485 12.669c0.561 0.299 1.048 0.477 1.463 0.533 0.41 0.051 0.903-0.033 1.48-0.254v0l0.483-0.205 0.272 0.304-7.782 6.948-0.272-0.304 0.321-0.566c0.285-0.547 0.341-1.011 0.17-1.392-0.176-0.376-0.507-0.712-0.992-1.007v0l-5.374-3.122-6.795 6.068 2.386 5.629c0.254 0.573 0.527 0.969 0.82 1.187 0.288 0.223 0.72 0.224 1.296 0.003v0l0.913-0.322zM213.238 229.322l5.19 12.472 6.402-5.717z" fill="#ffffff" data-fill-palette-color="quaternary"></path><path d="M247.708 225.317l-3.586 5.113-0.334-0.234 0.441-1.355c0.173-0.478 0.16-0.921-0.041-1.328-0.2-0.408-0.523-0.767-0.968-1.08v0l-16.162-11.336c-0.709-0.133-1.25-0.221-1.624-0.264-0.369-0.04-0.711-0.037-1.027 0.008-0.316 0.046-0.73 0.123-1.244 0.233v0l-0.97 0.17-0.334-0.234 4.169-5.944 23.042-0.481-12.669-8.886c-0.445-0.312-0.898-0.521-1.36-0.625-0.457-0.11-0.901 0.02-1.331 0.39v0l-1.077 0.896-0.334-0.234 3.369-4.804 0.334 0.234-0.333 1.116c-0.15 0.502-0.087 0.915 0.189 1.237 0.272 0.328 0.63 0.649 1.075 0.961v0l19.753 13.854-1.319 1.881-26.636 0.463 15.055 10.559c0.445 0.312 0.873 0.511 1.283 0.596 0.406 0.091 0.825-0.033 1.255-0.37v0l1.05-0.77z" fill="#ffffff" data-fill-palette-color="quaternary"></path><path d="M263.11 199.117l-2.028 5.283-0.381-0.146 0.024-1.088c-0.007-0.592-0.106-1.085-0.296-1.478-0.184-0.39-0.511-0.778-0.98-1.164v0l-19.615-16.587 1.252-3.259 25.79 0.976c0.635 0.01 1.151-0.055 1.545-0.195 0.388-0.142 0.788-0.443 1.199-0.904v0l0.336-0.403 0.381 0.146-3.74 9.739-0.381-0.146 0.026-0.651c0.003-0.617-0.159-1.055-0.485-1.315-0.329-0.254-0.776-0.401-1.344-0.441v0l-6.206-0.317-3.266 8.504 4.698 3.914c0.488 0.393 0.912 0.62 1.273 0.68 0.358 0.066 0.743-0.13 1.153-0.59v0l0.664-0.704zM243.952 186.391l10.322 8.715 3.077-8.012z" fill="#ffffff" data-fill-palette-color="quaternary"></path><path d="M4.06 143.696c0-5.869 4.758-10.627 10.627-10.627 5.869 0 10.627 4.758 10.627 10.627 0 5.869-4.758 10.627-10.627 10.628-5.869 0-10.627-4.758-10.627-10.628z" fill="#ffffff" data-fill-palette-color="quaternary"></path><path d="M254.686 143.696c0-5.869 4.758-10.627 10.627-10.627 5.869 0 10.627 4.758 10.627 10.627 0 5.869-4.758 10.627-10.627 10.628-5.869 0-10.627-4.758-10.627-10.628z" fill="#ffffff" data-fill-palette-color="quaternary"></path></g></svg></g></svg></g></svg></g></svg></g></svg></g></svg></g><defs></defs></svg><rect width="512" height="320" fill="none" stroke="none" visibility="hidden"></rect></g></svg></g></svg>